<svg xmlns="http://www.w3.org/2000/svg" xmlns:xlink="http://www.w3.org/1999/xlink" width="150" height="150" viewBox="0 0 150 150"><defs><style>.a{fill:#fff;}.b{fill:#e7e7e7;}.c{clip-path:url(#a);}.d{fill:#ba6f3c;}.e{fill:#faaa3c;}.f{fill:#ffeb9b;}.g{fill:#f8c298;}.h{fill:#ffd6c0;}.i{fill:#ed7a98;}.j{fill:#ebeef2;}.k{fill:#d3d8df;}.l{fill:#7fb7ea;}.m{fill:#e39f6e;}.n{fill:#627687;}.o{fill:none;}</style><clipPath id="a"><circle class="a" cx="68" cy="68" r="68" transform="translate(572 213)"/></clipPath></defs><g transform="translate(-563 -208)"><g transform="translate(-2 -2)"><path class="b" d="M64,58c35.346,0,64-32.033,64,0s-28.654,58-64,58S0,90.033,0,58,28.654,58,64,58Z" transform="translate(576 237)"/><g class="c" transform="translate(0 4)"><g transform="translate(-2453 -2376)"><g transform="translate(3037.258 2627.953)"><g transform="translate(58.933 0)"><path class="d" d="M24.929,67.279H47.337a10.065,10.065,0,0,0,10.008-8.99l2.609-24.271a23.958,23.958,0,1,0-47.641,0l2.608,24.272A10.066,10.066,0,0,0,24.929,67.279Zm0,0" transform="translate(-9.888 -6.092)"/><path class="e" d="M60.1,333.733v17.188H12.176V333.733a18.284,18.284,0,0,1,18.293-18.3H41.8a18.29,18.29,0,0,1,18.3,18.3Zm0,0" transform="translate(-9.891 -256.235)"/><path class="f" d="M90.514,317.938a14.854,14.854,0,0,1-29.639-.1,18.2,18.2,0,0,1,9.072-2.4h11.33A18.185,18.185,0,0,1,90.514,317.938Zm0,0" transform="translate(-49.45 -256.235)"/><g transform="translate(1.408 30.149)"><path class="g" d="M121.556,283.048a4.223,4.223,0,0,1-4.224-4.224V266.977h8.447v11.848A4.224,4.224,0,0,1,121.556,283.048Zm0,0" transform="translate(-96.718 -247.018)"/><path class="g" d="M222.947,166.323a5.687,5.687,0,1,1-5.687-5.686A5.687,5.687,0,0,1,222.947,166.323Zm0,0" transform="translate(-173.273 -160.637)"/><path class="g" d="M18.873,166.323a5.687,5.687,0,1,1-5.687-5.686A5.687,5.687,0,0,1,18.873,166.323Zm0,0" transform="translate(-7.5 -160.637)"/></g><path class="h" d="M44.332,105l2.716,21.748a15.326,15.326,0,0,0,30.416,0L80.181,105Zm0,0" transform="translate(-36.012 -85.293)"/><path class="d" d="M29.629,94.18v6.257s11.728,4.174,20.175-3.561c0,0,3.243,10.312,17.2,12.438a1.928,1.928,0,0,0,2.2-1.65L71,94.18Zm0,0" transform="translate(-24.068 -76.504)"/><path class="i" d="M187.39,213.17a1.537,1.537,0,1,1-1.537-1.537A1.537,1.537,0,0,1,187.39,213.17Zm0,0" transform="translate(-149.723 -171.913)"/><path class="i" d="M82.05,213.17a1.537,1.537,0,1,1-1.537-1.537A1.537,1.537,0,0,1,82.05,213.17Zm0,0" transform="translate(-64.154 -171.913)"/><path class="j" d="M127.972,453.131a3.564,3.564,0,1,1-3.564-3.565A3.563,3.563,0,0,1,127.972,453.131Zm0,0" transform="translate(-98.163 -365.19)"/><path d="M42.946,61.183A11.552,11.552,0,0,0,48.01,55.6a1.408,1.408,0,1,0-2.592-1.1,8.715,8.715,0,0,1-5.609,4.946,19.585,19.585,0,0,0-7.9-1.655h-.034V55.306A16.771,16.771,0,0,0,42.732,42.413a7.1,7.1,0,0,0,4.326.317l-.649,6.042a1.408,1.408,0,0,0,1.249,1.551,1.5,1.5,0,0,0,.152.008,1.409,1.409,0,0,0,1.4-1.257l.849-7.9A7.079,7.079,0,0,0,51.086,31.6l.379-3.528A25.4,25.4,0,0,0,42.818,6.161a1.408,1.408,0,0,0-1.842,2.13,22.576,22.576,0,0,1,7.689,19.483l-.18,1.676a7.086,7.086,0,0,0-1.628-.556l.459-3.454a1.408,1.408,0,0,0-2.791-.371l-.784,5.905a.519.519,0,0,1-.594.444,21.223,21.223,0,0,1-12.9-6.461,15.439,15.439,0,0,1-3.164-5.007,1.408,1.408,0,0,0-2.293-.616C18.677,24.927,10.608,23.759,7.421,23a1.408,1.408,0,0,0-.655,2.738c.273.065.58.133.913.2L8.037,28.8a7.2,7.2,0,0,0-.944-.064A7.057,7.057,0,0,0,4,29.45l-.18-1.676A22.549,22.549,0,0,1,26.245,2.815a22.335,22.335,0,0,1,9.811,2.238,1.407,1.407,0,1,0,1.227-2.534A25.124,25.124,0,0,0,26.245,0,25.365,25.365,0,0,0,1.025,28.076L1.4,31.6a7.079,7.079,0,0,0,1.029,9.573l1.2,11.171A11.545,11.545,0,0,0,9.54,61.185,19.7,19.7,0,0,0,.877,77.5v5.8a1.408,1.408,0,0,0,2.815,0V77.5a16.869,16.869,0,0,1,6.656-13.425,16.263,16.263,0,0,0,31.8,0A16.87,16.87,0,0,1,48.8,77.5v17.19a1.408,1.408,0,0,0,2.815,0V77.5A19.7,19.7,0,0,0,42.946,61.183ZM23.429,56.046a16.46,16.46,0,0,0,5.632,0v5.908a2.816,2.816,0,1,1-5.632,0ZM43.121,39.457l.658-5.262a3.339,3.339,0,0,0,2.688-2.5A4.279,4.279,0,0,1,45.4,40.114,4.226,4.226,0,0,1,43.121,39.457ZM25.2,22.641a19.939,19.939,0,0,0,2.856,4.095A23.561,23.561,0,0,0,40.98,33.883l-.924,7.4a13.919,13.919,0,0,1-27.622,0L10.569,26.353A21.075,21.075,0,0,0,25.2,22.641ZM8.408,31.763l.961,7.694a4.232,4.232,0,0,1-2.275.656,4.279,4.279,0,1,1,1.314-8.35ZM6.433,52.046l-1-9.315a7.063,7.063,0,0,0,4.325-.322,16.77,16.77,0,0,0,10.858,12.9v2.488H20.58a19.6,19.6,0,0,0-7.9,1.656A8.7,8.7,0,0,1,6.433,52.046ZM26.248,74.1A13.466,13.466,0,0,1,12.924,62.446a16.792,16.792,0,0,1,7.655-1.837h.034v1.345a5.631,5.631,0,1,0,11.262,0V60.609h.034a16.781,16.781,0,0,1,7.661,1.84A13.486,13.486,0,0,1,26.248,74.1Zm0,0" transform="translate(0)"/><path d="M6.079,470.5a1.408,1.408,0,0,0-1.408,1.408v4.974a1.408,1.408,0,0,0,2.815,0v-4.974A1.408,1.408,0,0,0,6.079,470.5Zm0,0" transform="translate(-3.795 -382.195)"/><path d="M89.284,180.612h.04a1.407,1.407,0,0,0,1.368-1.446l-.024-.9a1.408,1.408,0,1,0-2.815.077l.025.9A1.407,1.407,0,0,0,89.284,180.612Zm0,0" transform="translate(-71.364 -143.695)"/><path d="M178.116,180.612h.04a1.407,1.407,0,0,0,1.368-1.446l-.024-.9a1.408,1.408,0,0,0-2.815.077l.025.9A1.407,1.407,0,0,0,178.116,180.612Zm0,0" transform="translate(-143.524 -143.695)"/><path d="M111.808,215.863a7.687,7.687,0,0,0,6.207-3.173,1.408,1.408,0,1,0-2.28-1.651,4.844,4.844,0,0,1-7.855,0,1.408,1.408,0,0,0-2.281,1.651A7.689,7.689,0,0,0,111.808,215.863Zm0,0" transform="translate(-85.563 -170.957)"/><path d="M48.294,393.941a1.408,1.408,0,0,0-1.408,1.408v19.342a1.408,1.408,0,1,0,2.815,0V395.349A1.408,1.408,0,0,0,48.294,393.941Zm0,0" transform="translate(-38.087 -320.005)"/><path d="M219.193,393.941a1.408,1.408,0,0,0-1.408,1.408v19.342a1.408,1.408,0,0,0,2.815,0V395.349A1.408,1.408,0,0,0,219.193,393.941Zm0,0" transform="translate(-176.911 -320.005)"/><path d="M121.359,425.748l.471-3.458a1.408,1.408,0,1,0-2.79-.38l-.383,2.807c-.114-.007-.227-.013-.342-.013s-.229.006-.342.013l-.383-2.807a1.407,1.407,0,1,0-2.789.38l.471,3.458a4.971,4.971,0,1,0,6.087,0Zm-3.043,6.084a2.157,2.157,0,1,1,2.156-2.156A2.159,2.159,0,0,1,118.316,431.831Zm0,0" transform="translate(-92.071 -341.735)"/></g><g transform="translate(0 0)"><path class="j" d="M58.447,354.78H7.5V332.267a12.079,12.079,0,0,1,12.079-12.079H46.368a12.08,12.08,0,0,1,12.079,12.079Zm0,0" transform="translate(-6.092 -260.094)"/><path class="k" d="M208.852,332.267v22.512h-4.116V332.267a12.081,12.081,0,0,0-12.08-12.08h4.118A12.079,12.079,0,0,1,208.852,332.267Zm0,0" transform="translate(-156.498 -260.094)"/><path class="l" d="M59.926,443.82H91.194v11.389H59.926Zm0,0" transform="translate(-48.679 -360.523)"/><path class="m" d="M126.946,288.616a4.118,4.118,0,0,1-4.118-4.117v-11.55h8.235V284.5A4.116,4.116,0,0,1,126.946,288.616Zm0,0" transform="translate(-99.775 -221.721)"/><path class="n" d="M21.635,41.214H65.2l1.149-5.6a23.408,23.408,0,1,0-45.863,0Zm0,0" transform="translate(-16.247 -6.092)"/><path class="m" d="M225.786,174.825a5.544,5.544,0,1,1-5.543-5.544A5.543,5.543,0,0,1,225.786,174.825Zm0,0" transform="translate(-174.404 -137.51)"/><path class="m" d="M26.849,174.825a5.544,5.544,0,1,1-5.544-5.544A5.544,5.544,0,0,1,26.849,174.825Zm0,0" transform="translate(-12.804 -137.51)"/><path class="g" d="M68.666,145.541A14.94,14.94,0,0,1,53.84,132.453l-2.758-22.078H86.248l-2.757,22.078A14.941,14.941,0,0,1,68.666,145.541Zm0,0" transform="translate(-41.495 -89.659)"/><path class="n" d="M37.758,95.049A18.124,18.124,0,0,0,52.322,92.1s15.57,11.039,30.719.346A1.32,1.32,0,0,0,83,90.256l-9.411-6H37.758Zm0,0" transform="translate(-30.671 -68.444)"/><path d="M46.984,58.686H39.4V56.326a16.331,16.331,0,0,0,3.309-1.632,1.408,1.408,0,1,0-1.523-2.367,13.529,13.529,0,0,1-20.74-9.707L18.678,28.437a19.17,19.17,0,0,0,9.706-3.084A33.7,33.7,0,0,0,37.7,29.21a28.967,28.967,0,0,0,6.927.862,26.223,26.223,0,0,0,4.29-.354l-1.611,12.9a13.4,13.4,0,0,1-2.157,5.813,1.407,1.407,0,1,0,2.343,1.559,16.152,16.152,0,0,0,2.485-6.218,6.947,6.947,0,0,0,7.642-11.2l.568-2.771a25.3,25.3,0,0,0,.484-3.837c.409-.258.815-.525,1.216-.808a2.727,2.727,0,0,0-.1-4.531l-1.643-1.048A24.828,24.828,0,0,0,33.879,0,24.684,24.684,0,0,0,20.193,4.106a1.408,1.408,0,0,0,1.556,2.347A22.029,22.029,0,0,1,47.972,7.916a22.216,22.216,0,0,1,6.583,9.371l-4.176-2.661A1.408,1.408,0,0,0,48.866,17l9.3,5.927a23.405,23.405,0,0,1-19.7,3.572,30.137,30.137,0,0,1-9.3-3.988,1.408,1.408,0,0,0-1.644.012,16.764,16.764,0,0,1-12.482,2.906,1.408,1.408,0,0,0-.461,2.777c.343.056.763.114,1.246.161l.257,2.054a7,7,0,0,0-.879-.057,6.915,6.915,0,0,0-2.552.488l-.331-1.617a21.827,21.827,0,0,1,5.067-18.986,1.407,1.407,0,1,0-2.11-1.863A24.62,24.62,0,0,0,9.568,29.8l.568,2.771a6.95,6.95,0,0,0,7.642,11.206A16.385,16.385,0,0,0,28.353,56.321v2.364H20.195a13.417,13.417,0,0,0-7.608,2.349,1.408,1.408,0,1,0,1.59,2.323A10.612,10.612,0,0,1,20.195,61.5h8.158v1.276a5.525,5.525,0,1,0,11.05,0V61.5h7.58A10.684,10.684,0,0,1,57.654,72.173V94.686a1.408,1.408,0,0,0,2.815,0V72.173A13.5,13.5,0,0,0,46.984,58.686Zm5.564-17.235a4.081,4.081,0,0,1-2.179-.623l.931-7.456a4.136,4.136,0,1,1,1.248,8.079Zm2.883-12.217L55.1,30.852a6.906,6.906,0,0,0-2.552-.488,7.017,7.017,0,0,0-.88.057l.171-1.365A26.011,26.011,0,0,0,55.7,27.6C55.629,28.146,55.542,28.692,55.431,29.234ZM11.074,37.315a4.135,4.135,0,0,1,5.383-3.944l.932,7.457a4.093,4.093,0,0,1-2.18.622A4.14,4.14,0,0,1,11.074,37.315Zm22.8,28.172a2.713,2.713,0,0,1-2.71-2.71V57.06a16.164,16.164,0,0,0,5.419,0v5.716A2.712,2.712,0,0,1,33.879,65.488Zm0,0" transform="translate(-6.708)"/><path d="M3.035,350.867a1.408,1.408,0,0,0-1.861.708A13.387,13.387,0,0,0,0,357.088V379.6a1.408,1.408,0,0,0,2.815,0V357.088a10.59,10.59,0,0,1,.928-4.361A1.407,1.407,0,0,0,3.035,350.867Zm0,0" transform="translate(0 -284.915)"/><path d="M93.733,184.947a1.408,1.408,0,0,0-1.368,1.446l.023.879A1.408,1.408,0,0,0,93.8,188.64h.039a1.408,1.408,0,0,0,1.369-1.445l-.024-.879A1.406,1.406,0,0,0,93.733,184.947Zm0,0" transform="translate(-75.029 -150.235)"/><path d="M180.331,184.947a1.408,1.408,0,0,0-1.369,1.446l.024.879a1.407,1.407,0,0,0,1.406,1.369h.039a1.408,1.408,0,0,0,1.369-1.445l-.024-.879A1.406,1.406,0,0,0,180.331,184.947Zm0,0" transform="translate(-145.374 -150.235)"/><path d="M119.55,218.246a4.686,4.686,0,0,1-7.6,0,1.408,1.408,0,0,0-2.281,1.651,7.5,7.5,0,0,0,12.161,0,1.408,1.408,0,0,0-2.28-1.651Zm0,0" transform="translate(-88.869 -176.812)"/><path d="M85.1,396.531a1.408,1.408,0,0,0-1.408,1.408V404H55.241v-6.06a1.408,1.408,0,0,0-2.815,0V416.8a1.408,1.408,0,1,0,2.815,0v-9.981H83.694V416.8a1.408,1.408,0,0,0,2.815,0V397.939A1.408,1.408,0,0,0,85.1,396.531Zm0,0" transform="translate(-42.586 -322.109)"/></g></g><rect class="o" width="128" height="128" transform="translate(3029 2612)"/></g></g></g><rect class="o" width="150" height="150" transform="translate(563 208)"/></g></svg>